<svg xmlns="http://www.w3.org/2000/svg" xmlns:xlink="http://www.w3.org/1999/xlink" version="1.1" id="Your_Icon" x="0px" y="0px" width="48px" height="48px" viewBox="17 176.375 48 48" enable-background="new 17 176.375 48 48" xml:space="preserve">
<path fill="#000000" d="M41,176.375c-13.255,0-24,10.745-24,24s10.745,24,24,24s24-10.745,24-24S54.255,176.375,41,176.375z   M30.75,189.875h22c2.2,0,2.727,1.273,1.172,2.829l-9.344,9.343c-1.555,1.555-4.102,1.555-5.657,0l-9.343-9.343  C28.023,191.148,28.55,189.875,30.75,189.875z M56.5,207.292c0,2.2-1.799,4-4,4H30.75c-2.2,0-4-1.8-4-4v-9.667  c0-2.2,1.318-2.773,2.929-1.275l9.016,8.775c1.611,1.498,4.278,1.531,5.925,0.072l8.886-8.254c1.646-1.459,2.994-0.853,2.994,1.349  V207.292z"/>
</svg>